<svg width="236" height="53" viewBox="0 0 236 53" fill="none" xmlns="http://www.w3.org/2000/svg">
<g clip-path="url(#clip0)">
<path d="M31 31.4807L0 43.2807V52.4807L28.4 41.7807C32.9 39.6807 34.2 34.7807 31 31.4807Z" fill="#5D5D5D"/>
<path d="M10.4 22.7807L0 4.18066V26.8807L10.4 22.7807Z" fill="#46C1BE"/>
<path d="M12.2 21.7807L43 9.58067V0.480667L14.8 11.4807C10.3 13.4807 9 18.3807 12.2 21.7807Z" fill="#5D5D5D"/>
<path d="M32.9 30.5807L43 48.6807V26.4807L32.9 30.5807Z" fill="#46C1BE"/>
<path d="M0 30.0807V40.4807L43 23.6807V12.8807L0 30.0807Z" fill="#46C1BE"/>
<path d="M71.5 33.1807L61.6 15.2807C61.2825 14.5153 60.8435 13.8062 60.3 13.1807C59.9722 12.896 59.5915 12.6788 59.1797 12.5416C58.7679 12.4043 58.333 12.3496 57.9 12.3807C55.6 12.3807 54.4 13.6807 54.4 16.0807V37.8807H58.5V17.4807L68.5 35.3807C68.83 36.1396 69.2679 36.8469 69.8 37.4807C70.4313 38.04 71.2579 38.3275 72.1 38.2807C72.5877 38.301 73.074 38.213 73.5236 38.0227C73.9732 37.8325 74.375 37.5449 74.7 37.1807C75.0073 36.8643 75.2459 36.4877 75.4008 36.0747C75.5557 35.6617 75.6235 35.2211 75.6 34.7807V12.6807H71.5V33.1807Z" fill="#46C1BE"/>
<path d="M91.5 18.6807H79.3V21.9807H91C92.1 21.9807 92.9 22.1807 93.3 22.7807C93.7284 23.4688 93.9377 24.2709 93.9 25.0807H84.8C83.3372 25.0073 81.8924 25.4302 80.7 26.2807C80.2196 26.7433 79.8456 27.305 79.6038 27.9266C79.3621 28.5482 79.2584 29.215 79.3 29.8807V33.2807C79.2678 33.9351 79.3969 34.5874 79.6759 35.1802C79.9549 35.7731 80.3752 36.2883 80.9 36.6807C82.1299 37.5317 83.6061 37.9534 85.1 37.8807H92.3C93.7113 37.9116 95.0896 37.4522 96.2 36.5807C96.6575 36.1219 97.0173 35.5754 97.258 34.9738C97.4986 34.3723 97.6149 33.7283 97.6 33.0807V23.5807C97.6 20.2807 95.6 18.6807 91.5 18.6807ZM93.8 32.4807C93.8 33.8807 93 34.5807 91.2 34.5807H85.8C85.0869 34.5954 84.3872 34.3855 83.8 33.9807C83.5455 33.8001 83.3394 33.5597 83.1999 33.2807C83.0604 33.0017 82.9917 32.6925 83 32.3807V30.4807C83 28.8807 83.9 28.0807 85.7 28.0807H93C93.5 28.0807 93.8 28.2807 93.8 28.7807V32.4807Z" fill="#46C1BE"/>
<path d="M122.8 18.7807H119.4C118.494 18.7501 117.596 18.9667 116.804 19.407C116.011 19.8474 115.353 20.4951 114.9 21.2807C114.456 20.4827 113.798 19.8246 113 19.3807C112.207 18.9389 111.306 18.7309 110.4 18.7807H106.9C103.3 18.7807 101.4 20.8807 101.4 25.0807V37.7807H105.2V26.0807C105.2 23.8807 106.2 22.8807 108.1 22.8807C109.27 22.8487 110.441 22.9156 111.6 23.0807C112.5 23.4807 113 24.5807 113 26.1807V37.7807H116.7V26.1807C116.638 25.3816 116.812 24.582 117.2 23.8807C117.448 23.5624 117.767 23.3063 118.132 23.1327C118.496 22.9592 118.896 22.8729 119.3 22.8807C120.47 22.7826 121.649 22.8499 122.8 23.0807C123.9 23.4807 124.4 24.4807 124.4 26.0807V37.7807H128.2V25.0807C128.274 23.4322 127.78 21.8083 126.8 20.4807C126.3 19.9201 125.682 19.4771 124.99 19.1832C124.299 18.8893 123.551 18.7519 122.8 18.7807Z" fill="#46C1BE"/>
<path d="M150.4 26.2807V23.8807C150.4 20.4807 148.5 18.6807 144.7 18.6807H138.1C134.1 18.6807 132.1 20.3807 132.1 23.5807V32.6807C132.035 33.4599 132.166 34.2429 132.48 34.9588C132.795 35.6747 133.283 36.3009 133.9 36.7807C135.267 37.554 136.834 37.9021 138.4 37.7807H150.3V34.5807H139.1C138.312 34.6429 137.521 34.5053 136.8 34.1807C136.492 33.9069 136.251 33.5664 136.095 33.185C135.939 32.8037 135.872 32.3917 135.9 31.9807V31.3807L150.4 26.2807ZM135.8 28.1807V24.3807C135.8 22.7807 137 21.9807 139.3 21.9807H143.5C145.5 21.9807 146.5 22.6807 146.5 24.1807V24.3807L135.8 28.1807Z" fill="#46C1BE"/>
<path d="M173.2 16.0807H162.2C160.4 16.0807 159.3 16.4807 158.9 17.2807C158.539 18.3064 158.403 19.3977 158.5 20.4807C158.475 20.8868 158.554 21.2926 158.729 21.6599C158.904 22.0273 159.169 22.3441 159.5 22.5807C160.324 23.0358 161.261 23.2441 162.2 23.1807H166.8C168.448 23.1064 170.072 23.6007 171.4 24.5807C171.987 25.0196 172.457 25.5953 172.771 26.2575C173.085 26.9198 173.232 27.6486 173.2 28.3807V32.4807C173.239 33.2425 173.097 34.0027 172.784 34.6983C172.471 35.3939 171.996 36.0049 171.4 36.4807C169.954 37.4405 168.232 37.8974 166.5 37.7807H154.2V34.5807H165.2C167 34.5807 168.1 34.2807 168.6 32.8807C168.876 31.7699 168.978 30.6227 168.9 29.4807C168.9 27.6807 167.7 26.8807 165.4 26.8807H160.8C159.171 26.92 157.568 26.4669 156.2 25.5807C155.57 25.1709 155.055 24.6064 154.705 23.9412C154.355 23.276 154.181 22.5322 154.2 21.7807V17.7807C154.174 16.9365 154.362 16.0993 154.746 15.3474C155.131 14.5955 155.7 13.9533 156.4 13.4807C157.687 12.6827 159.188 12.2987 160.7 12.3807H173.2V16.0807Z" fill="#5D5D5D"/>
<path d="M191.8 37.8807H183.2C179.1 37.8807 177 36.1807 177 32.7807V23.5807C177 20.2807 178.8 18.6807 182.2 18.6807H191.8V21.9807H183.8C182.998 21.8682 182.183 22.0455 181.5 22.4807C181.233 22.7127 181.028 23.0085 180.906 23.3407C180.784 23.6729 180.747 24.0306 180.8 24.3807V32.0807C180.8 33.7807 181.9 34.5807 184 34.5807H191.8V37.8807Z" fill="#5D5D5D"/>
<path d="M213.8 33.0807C213.834 33.7306 213.726 34.3801 213.484 34.9843C213.242 35.5886 212.873 36.1332 212.4 36.5807C211.29 37.4522 209.911 37.9116 208.5 37.8807H201.3C199.808 37.9389 198.336 37.5184 197.1 36.6807C196.575 36.2883 196.155 35.7731 195.876 35.1802C195.597 34.5874 195.468 33.9351 195.5 33.2807V29.8807C195.449 29.2048 195.558 28.5265 195.818 27.9008C196.079 27.2752 196.484 26.72 197 26.2807C198.185 25.4154 199.635 24.9909 201.1 25.0807H210.1C210.193 24.2661 209.979 23.4462 209.5 22.7807C209.1 22.1807 208.4 21.9807 207.2 21.9807H195.5V18.6807H207.7C211.8 18.6807 213.8 20.2807 213.8 23.5807V33.0807ZM210 32.4807V28.7807C210 28.2807 209.8 28.0807 209.2 28.0807H201.9C200.1 28.0807 199.3 28.8807 199.3 30.4807V32.3807C199.28 32.6839 199.333 32.9875 199.455 33.2659C199.577 33.5443 199.764 33.7894 200 33.9807C200.587 34.3855 201.287 34.5954 202 34.5807H207.4C209.2 34.5807 210 33.8807 210 32.4807Z" fill="#5D5D5D"/>
<path d="M232 37.7807V25.6807C232 23.6807 230.9 22.7807 228.8 22.7807H224.6C222.4 22.7807 221.4 23.6807 221.4 25.6807V37.7807H217.6V24.4807C217.6 20.5807 219.5 18.6807 223.3 18.6807H230C233.8 18.6807 235.7 20.5807 235.7 24.4807V37.7807H232Z" fill="#5D5D5D"/>
<g clip-path="url(#clip1)">
<path fill-rule="evenodd" clip-rule="evenodd" d="M133.546 45.0715H135.67V46.7247H133.546C133.43 46.726 133.315 46.7053 133.207 46.664C133.099 46.6226 133.001 46.5614 132.919 46.4838C132.838 46.4077 132.775 46.3171 132.731 46.2173C132.688 46.1174 132.666 46.0103 132.666 45.9023C132.663 45.7939 132.684 45.6861 132.728 45.5859C132.771 45.4857 132.836 45.3953 132.919 45.3208C133 45.2405 133.097 45.1769 133.205 45.1341C133.313 45.0912 133.429 45.0699 133.546 45.0715ZM132.823 47.4973C133.051 47.5903 133.297 47.6383 133.546 47.6385H136.157C136.284 47.6372 136.406 47.5897 136.497 47.5056C136.543 47.4623 136.579 47.4104 136.603 47.3533C136.627 47.2961 136.638 47.2348 136.636 47.1733V43.7257C136.636 43.4968 136.585 43.2704 136.488 43.0611C136.397 42.8535 136.26 42.6666 136.088 42.5129C135.921 42.3531 135.723 42.2261 135.504 42.139C135.279 42.0454 135.036 41.9973 134.791 41.9978H132.518C132.454 41.996 132.39 42.0068 132.33 42.0297C132.27 42.0526 132.215 42.0869 132.17 42.1307C132.123 42.1701 132.086 42.2187 132.06 42.2732C132.034 42.3276 132.022 42.3867 132.022 42.4464C132.022 42.5061 132.034 42.5652 132.06 42.6196C132.086 42.6741 132.123 42.7227 132.17 42.7621C132.215 42.8059 132.27 42.8402 132.33 42.8631C132.39 42.886 132.454 42.8968 132.518 42.895H134.791C134.906 42.8925 135.021 42.9134 135.128 42.9564C135.234 42.9993 135.33 43.0634 135.409 43.1442C135.492 43.2187 135.558 43.3088 135.603 43.4089C135.648 43.509 135.671 43.6169 135.67 43.7257V44.166H133.546C133.298 44.1636 133.052 44.2088 132.823 44.2989C132.609 44.3882 132.414 44.515 132.248 44.6728C132.076 44.8296 131.939 45.0192 131.848 45.2294C131.75 45.4413 131.699 45.6706 131.7 45.9023C131.7 46.1366 131.751 46.3683 131.848 46.5835C131.942 46.7875 132.078 46.9712 132.248 47.1235C132.414 47.2812 132.609 47.408 132.823 47.4973Z" fill="#5D5D5D"/>
<path d="M144.532 43.1547C144.613 43.2287 144.678 43.3177 144.721 43.4163C144.764 43.5149 144.786 43.621 144.785 43.7279V47.1755C144.783 47.237 144.794 47.2983 144.818 47.3555C144.842 47.4126 144.878 47.4645 144.924 47.5078C145.018 47.5931 145.143 47.6407 145.272 47.6407C145.399 47.6394 145.521 47.5919 145.612 47.5078C145.658 47.4645 145.694 47.4126 145.718 47.3555C145.742 47.2983 145.753 47.237 145.751 47.1755V43.7279C145.751 43.499 145.7 43.2726 145.603 43.0633C145.518 42.8566 145.387 42.6696 145.22 42.5151C145.05 42.3551 144.849 42.2281 144.628 42.1412C144.406 42.0475 144.166 41.9994 143.923 42H142.643C142.398 42.0004 142.155 42.0485 141.929 42.1412C141.712 42.2303 141.515 42.357 141.346 42.5151C141.179 42.6714 141.046 42.8577 140.954 43.0633C140.86 43.2732 140.812 43.4996 140.815 43.7279V47.1755C140.815 47.2992 140.865 47.4182 140.954 47.5078C141.046 47.5919 141.167 47.6394 141.294 47.6407C141.423 47.6407 141.548 47.5931 141.642 47.5078C141.688 47.4645 141.724 47.4126 141.748 47.3555C141.772 47.2983 141.783 47.237 141.781 47.1755V43.7279C141.78 43.621 141.802 43.5149 141.845 43.4163C141.889 43.3177 141.953 43.2287 142.034 43.1547C142.112 43.0746 142.206 43.0104 142.311 42.9662C142.416 42.9219 142.529 42.8984 142.643 42.8972H143.923C144.038 42.8984 144.151 42.9219 144.255 42.9662C144.36 43.0104 144.454 43.0746 144.532 43.1547Z" fill="#5D5D5D"/>
<path fill-rule="evenodd" clip-rule="evenodd" d="M150.548 43.1464C150.631 43.2209 150.698 43.311 150.742 43.4111C150.787 43.5112 150.81 43.6191 150.809 43.7279V44.4008H147.701V43.7279C147.698 43.6195 147.719 43.5117 147.763 43.4115C147.806 43.3113 147.871 43.221 147.954 43.1464C148.034 43.0649 148.131 43.0006 148.239 42.9576C148.347 42.9146 148.464 42.894 148.581 42.8972H149.93C150.046 42.8947 150.161 42.9156 150.267 42.9586C150.374 43.0015 150.469 43.0656 150.548 43.1464ZM147.849 47.4995C148.081 47.5925 148.329 47.6405 148.581 47.6407H151.201C151.331 47.6399 151.455 47.5924 151.549 47.5078C151.595 47.4645 151.631 47.4126 151.655 47.3555C151.679 47.2983 151.691 47.237 151.689 47.1755C151.685 47.0574 151.635 46.9448 151.549 46.8598C151.455 46.7752 151.331 46.7277 151.201 46.7269H148.581C148.464 46.7296 148.349 46.7096 148.241 46.6682C148.133 46.6268 148.036 46.5648 147.954 46.486C147.872 46.4111 147.807 46.3207 147.763 46.2206C147.72 46.1205 147.699 46.0128 147.701 45.9045V45.298H151.297C151.418 45.3 151.536 45.2585 151.628 45.1817H151.636C151.682 45.1403 151.719 45.09 151.743 45.0341C151.767 44.9782 151.778 44.9181 151.776 44.8577V43.7279C151.775 43.499 151.725 43.2726 151.628 43.0633C151.536 42.8557 151.4 42.6688 151.227 42.5151C151.06 42.3553 150.862 42.2283 150.644 42.1412C150.419 42.0476 150.176 41.9995 149.93 42H148.581C148.329 42.0002 148.081 42.0482 147.849 42.1412C147.635 42.2305 147.44 42.3573 147.275 42.5151C147.108 42.6731 146.972 42.8589 146.874 43.0633C146.78 43.2732 146.732 43.4996 146.735 43.7279V45.9045C146.732 46.1382 146.78 46.37 146.874 46.5857H146.883C146.977 46.7877 147.11 46.9709 147.275 47.1257C147.44 47.2834 147.635 47.4102 147.849 47.4995Z" fill="#5D5D5D"/>
<path d="M153.761 47.5078C153.985 47.6047 154.228 47.6529 154.474 47.649H155.754C155.997 47.6537 156.239 47.6054 156.459 47.5078C156.678 47.4207 156.879 47.2969 157.051 47.1423C157.217 46.9863 157.347 46.7998 157.434 46.594C157.531 46.3816 157.581 46.1526 157.582 45.9211V42.4569C157.583 42.3973 157.57 42.3382 157.545 42.2837C157.519 42.2292 157.481 42.1806 157.434 42.1412C157.391 42.0991 157.34 42.0657 157.283 42.0428C157.226 42.02 157.165 42.0083 157.104 42.0083C156.974 42.0083 156.849 42.0559 156.755 42.1412C156.71 42.1811 156.673 42.2299 156.649 42.2844C156.625 42.3389 156.614 42.3978 156.616 42.4569V45.9128C156.617 46.0209 156.595 46.1279 156.551 46.2278C156.508 46.3276 156.444 46.4182 156.364 46.4943C156.285 46.5722 156.19 46.6338 156.085 46.6753C155.98 46.7167 155.868 46.7371 155.754 46.7352H154.474C154.361 46.7371 154.248 46.7167 154.144 46.6753C154.039 46.6338 153.944 46.5722 153.865 46.4943C153.785 46.4182 153.721 46.3276 153.678 46.2278C153.634 46.1279 153.612 46.0209 153.613 45.9128V42.4569C153.615 42.3978 153.603 42.3389 153.579 42.2844C153.555 42.2299 153.519 42.1811 153.473 42.1412C153.379 42.0559 153.255 42.0083 153.125 42.0083C152.998 42.0096 152.877 42.0572 152.786 42.1412C152.74 42.1811 152.703 42.2299 152.679 42.2844C152.655 42.3389 152.644 42.3978 152.646 42.4569V45.9128C152.644 46.1438 152.692 46.3727 152.786 46.5857C152.879 46.7902 153.012 46.9762 153.177 47.134C153.346 47.2914 153.544 47.4181 153.761 47.5078Z" fill="#5D5D5D"/>
<path d="M159.776 43.1547C159.855 43.0757 159.95 43.0123 160.054 42.9681C160.159 42.9239 160.271 42.8998 160.386 42.8972H161.674C161.736 42.8978 161.797 42.8862 161.854 42.8634C161.911 42.8405 161.962 42.8068 162.005 42.7643C162.052 42.7249 162.09 42.6763 162.115 42.6219C162.141 42.5674 162.154 42.5083 162.153 42.4486C162.154 42.3889 162.141 42.3299 162.115 42.2754C162.09 42.2209 162.052 42.1723 162.005 42.1329C161.962 42.0904 161.911 42.0567 161.854 42.0339C161.797 42.011 161.736 41.9995 161.674 42H160.386C160.14 42.0011 159.898 42.0491 159.672 42.1412C159.458 42.2305 159.263 42.3573 159.097 42.5151C158.927 42.6709 158.791 42.8573 158.697 43.0634C158.606 43.2744 158.559 43.5 158.558 43.728V47.1755C158.558 47.2975 158.608 47.4146 158.697 47.5016C158.787 47.5886 158.909 47.6385 159.036 47.6407C159.101 47.6416 159.165 47.6303 159.224 47.6075C159.284 47.5847 159.339 47.5508 159.385 47.5078C159.432 47.4652 159.47 47.4137 159.495 47.3565C159.521 47.2993 159.533 47.2377 159.533 47.1755V43.728C159.53 43.6216 159.551 43.5159 159.592 43.4173C159.634 43.3188 159.697 43.2294 159.776 43.1547Z" fill="#5D5D5D"/>
<path fill-rule="evenodd" clip-rule="evenodd" d="M166.68 43.1464C166.763 43.2209 166.829 43.311 166.874 43.4111C166.919 43.5112 166.942 43.6191 166.941 43.7279V45.9045C166.942 46.0133 166.919 46.1212 166.874 46.2213C166.829 46.3214 166.763 46.4115 166.68 46.486C166.6 46.5641 166.503 46.6258 166.397 46.6672C166.291 46.7086 166.177 46.7289 166.062 46.7269H164.608C164.491 46.7288 164.374 46.7085 164.265 46.6672C164.156 46.6258 164.057 46.5642 163.973 46.486C163.893 46.4095 163.831 46.3186 163.789 46.2188C163.747 46.1189 163.727 46.012 163.729 45.9045V43.7279C163.726 43.6203 163.746 43.5133 163.788 43.4134C163.83 43.3135 163.893 43.2226 163.973 43.1464C164.055 43.0655 164.154 43.0016 164.263 42.9588C164.373 42.9159 164.49 42.8949 164.608 42.8972H166.062C166.178 42.8947 166.292 42.9156 166.399 42.9586C166.506 43.0015 166.601 43.0656 166.68 43.1464ZM167.377 47.1257C167.54 46.9683 167.67 46.7821 167.76 46.5774C167.86 46.3662 167.911 46.1364 167.908 45.9045V43.7279C167.911 43.4986 167.861 43.2714 167.76 43.0633C167.668 42.8577 167.535 42.6714 167.368 42.5151C167.198 42.3551 166.997 42.2281 166.776 42.1412C166.551 42.0476 166.308 41.9995 166.062 42H164.582C164.337 42.0011 164.094 42.0491 163.868 42.1412C163.654 42.2305 163.459 42.3573 163.294 42.5151C163.121 42.6688 162.984 42.8557 162.893 43.0633C162.803 43.2744 162.755 43.5 162.754 43.7279V45.9045C162.754 46.1388 162.805 46.3705 162.902 46.5857C163.002 46.7863 163.137 46.969 163.302 47.1257C163.468 47.2834 163.662 47.4102 163.877 47.4995C164.108 47.5931 164.357 47.6412 164.608 47.6407H166.079C166.322 47.6413 166.562 47.5932 166.785 47.4995C167.005 47.4126 167.206 47.2856 167.377 47.1257Z" fill="#5D5D5D"/>
<path d="M170.014 47.4995C170.246 47.5931 170.494 47.6412 170.746 47.6407H173.244C173.371 47.6394 173.493 47.5919 173.584 47.5078C173.673 47.4182 173.723 47.2992 173.723 47.1755C173.721 47.0558 173.669 46.9417 173.58 46.8578C173.49 46.7739 173.37 46.7269 173.244 46.7269H170.746C170.628 46.7288 170.512 46.7085 170.403 46.6672C170.294 46.6258 170.194 46.5642 170.11 46.486C170.031 46.4095 169.969 46.3186 169.927 46.2188C169.885 46.1189 169.864 46.012 169.866 45.9045V43.7279C169.864 43.6203 169.884 43.5133 169.926 43.4134C169.968 43.3135 170.031 43.2226 170.11 43.1464C170.193 43.0655 170.291 43.0017 170.401 42.9588C170.51 42.9159 170.628 42.8949 170.746 42.8972H173.244C173.307 42.8984 173.37 42.8872 173.428 42.8643C173.487 42.8415 173.54 42.8074 173.584 42.7643C173.628 42.7232 173.663 42.6741 173.687 42.6199C173.711 42.5657 173.723 42.5074 173.723 42.4486C173.724 42.3889 173.711 42.3299 173.685 42.2754C173.66 42.2209 173.622 42.1723 173.575 42.1329C173.533 42.0892 173.482 42.0546 173.425 42.0317C173.368 42.0087 173.306 41.9979 173.244 42H170.72C170.474 42.0011 170.231 42.0491 170.006 42.1412C169.791 42.2305 169.596 42.3573 169.431 42.5151C169.259 42.6688 169.122 42.8557 169.031 43.0634C168.94 43.2744 168.893 43.5 168.891 43.7279V45.9045C168.892 46.1388 168.942 46.3705 169.039 46.5857C169.139 46.7864 169.275 46.969 169.44 47.1257C169.605 47.2834 169.8 47.4102 170.014 47.4995Z" fill="#5D5D5D"/>
<path fill-rule="evenodd" clip-rule="evenodd" d="M178.468 43.1464C178.551 43.2209 178.617 43.311 178.662 43.4111C178.707 43.5112 178.73 43.6191 178.729 43.7279V45.9045C178.73 46.0133 178.707 46.1212 178.662 46.2213C178.617 46.3214 178.551 46.4115 178.468 46.486C178.387 46.5641 178.291 46.6258 178.185 46.6672C178.078 46.7086 177.964 46.7289 177.85 46.7269H176.396C176.278 46.7288 176.162 46.7085 176.053 46.6672C175.944 46.6258 175.844 46.5642 175.76 46.486C175.681 46.4095 175.619 46.3186 175.577 46.2188C175.535 46.1189 175.514 46.012 175.516 45.9045V43.7279C175.514 43.6203 175.534 43.5133 175.576 43.4134C175.618 43.3135 175.681 43.2226 175.76 43.1464C175.843 43.0655 175.942 43.0016 176.051 42.9588C176.16 42.9159 176.278 42.8949 176.396 42.8972H177.85C177.965 42.8947 178.08 42.9156 178.187 42.9586C178.293 43.0015 178.389 43.0656 178.468 43.1464ZM179.164 47.1257C179.328 46.9683 179.458 46.7821 179.547 46.5774C179.648 46.3662 179.698 46.1364 179.695 45.9045V43.7279C179.699 43.4986 179.649 43.2714 179.547 43.0633C179.456 42.8577 179.323 42.6714 179.156 42.5151C178.985 42.3551 178.784 42.2281 178.564 42.1412C178.338 42.0476 178.095 41.9995 177.85 42H176.37C176.124 42.0004 175.881 42.0485 175.656 42.1412C175.441 42.2305 175.247 42.3573 175.081 42.5151C174.909 42.6688 174.772 42.8557 174.681 43.0633C174.59 43.2744 174.543 43.5 174.541 43.7279V45.9045C174.542 46.1388 174.592 46.3705 174.689 46.5857C174.789 46.7863 174.925 46.969 175.09 47.1257C175.255 47.2834 175.45 47.4102 175.664 47.4995C175.896 47.5931 176.145 47.6412 176.396 47.6407H177.867C178.11 47.6413 178.35 47.5932 178.572 47.4995C178.793 47.4126 178.994 47.2856 179.164 47.1257Z" fill="#5D5D5D"/>
<path d="M187.052 43.1547C187.133 43.2287 187.197 43.3177 187.24 43.4163C187.284 43.5149 187.306 43.621 187.304 43.728V47.1755C187.302 47.2371 187.314 47.2983 187.338 47.3555C187.362 47.4127 187.398 47.4645 187.444 47.5078C187.537 47.5931 187.662 47.6407 187.792 47.6407C187.919 47.6395 188.04 47.5919 188.131 47.5078C188.221 47.4182 188.271 47.2992 188.271 47.1755V43.728C188.27 43.499 188.22 43.2727 188.123 43.0634C188.037 42.8566 187.907 42.6696 187.74 42.5151C187.569 42.3551 187.368 42.2281 187.148 42.1412C186.925 42.0475 186.685 41.9994 186.442 42H185.824C185.549 41.9977 185.278 42.0575 185.032 42.1745H185.023C184.819 42.2751 184.634 42.407 184.475 42.5649C184.313 42.4029 184.121 42.2706 183.909 42.1745C183.666 42.0566 183.398 41.9968 183.125 42H182.507C182.262 42.0011 182.019 42.0491 181.793 42.1412C181.579 42.2305 181.384 42.3573 181.219 42.5151C181.046 42.6688 180.91 42.8557 180.818 43.0634C180.728 43.2744 180.681 43.5 180.679 43.728V47.1755C180.678 47.2377 180.691 47.2993 180.717 47.3565C180.742 47.4137 180.78 47.4652 180.827 47.5078C180.87 47.5499 180.922 47.5834 180.978 47.6062C181.035 47.6291 181.096 47.6408 181.158 47.6407C181.222 47.6416 181.286 47.6303 181.346 47.6075C181.406 47.5847 181.46 47.5508 181.506 47.5078C181.554 47.4652 181.591 47.4137 181.617 47.3565C181.642 47.2993 181.655 47.2377 181.654 47.1755V43.728C181.652 43.6216 181.672 43.5159 181.714 43.4173C181.756 43.3188 181.818 43.2294 181.898 43.1547C181.977 43.0757 182.071 43.0123 182.176 42.9681C182.28 42.9239 182.393 42.8998 182.507 42.8972H183.125C183.24 42.8984 183.353 42.9219 183.458 42.9662C183.563 43.0105 183.657 43.0746 183.735 43.1547C183.818 43.2273 183.885 43.3159 183.93 43.4147C183.975 43.5135 183.997 43.6202 183.996 43.728V47.1755C183.994 47.2351 184.004 47.2946 184.026 47.3503C184.049 47.406 184.083 47.4568 184.127 47.4995C184.221 47.5841 184.345 47.6316 184.475 47.6324C184.538 47.6352 184.601 47.6247 184.66 47.6018C184.719 47.5788 184.771 47.5439 184.814 47.4995C184.86 47.4562 184.896 47.4044 184.92 47.3472C184.944 47.29 184.956 47.2288 184.954 47.1672V43.728C184.952 43.621 184.974 43.5149 185.018 43.4163C185.061 43.3177 185.125 43.2287 185.206 43.1547C185.286 43.0751 185.382 43.0114 185.488 42.9672C185.594 42.923 185.709 42.8992 185.824 42.8972H186.442C186.557 42.8984 186.67 42.9219 186.775 42.9662C186.88 43.0105 186.974 43.0746 187.052 43.1547Z" fill="#5D5D5D"/>
<path d="M193.572 47.4995C193.801 47.5925 194.047 47.6405 194.295 47.6407H196.794C196.92 47.6394 197.042 47.5919 197.133 47.5078C197.179 47.4645 197.215 47.4126 197.239 47.3555C197.263 47.2983 197.274 47.237 197.272 47.1755C197.273 47.1166 197.261 47.0582 197.237 47.0039C197.213 46.9496 197.178 46.9006 197.133 46.8598C197.042 46.7757 196.92 46.7282 196.794 46.7269H194.295C194.179 46.7282 194.064 46.7075 193.956 46.6662C193.849 46.6249 193.751 46.5636 193.668 46.486C193.588 46.4099 193.524 46.3193 193.481 46.2195C193.437 46.1196 193.415 46.0125 193.416 45.9045V43.7279C193.415 43.6198 193.437 43.5126 193.48 43.4127C193.523 43.3128 193.587 43.2222 193.668 43.1464C193.749 43.0662 193.847 43.0026 193.954 42.9597C194.062 42.9169 194.178 42.8956 194.295 42.8972H196.794C196.857 42.8984 196.919 42.8872 196.978 42.8643C197.036 42.8415 197.089 42.8074 197.133 42.7643C197.179 42.7245 197.215 42.6756 197.239 42.6211C197.263 42.5666 197.275 42.5077 197.272 42.4486C197.275 42.3895 197.263 42.3306 197.239 42.2761C197.215 42.2216 197.179 42.1727 197.133 42.1329C197.089 42.0898 197.036 42.0557 196.978 42.0329C196.919 42.01 196.857 41.9988 196.794 42H194.278C194.032 42.0004 193.789 42.0485 193.564 42.1412H193.555C193.341 42.2305 193.146 42.3573 192.98 42.5151C192.813 42.6714 192.68 42.8577 192.589 43.0634C192.494 43.2732 192.447 43.4996 192.449 43.7279V45.9045C192.45 46.1388 192.5 46.3705 192.597 46.5857C192.691 46.7877 192.824 46.971 192.989 47.1257C193.159 47.2818 193.357 47.4084 193.572 47.4995Z" fill="#5D5D5D"/>
<path fill-rule="evenodd" clip-rule="evenodd" d="M202.026 43.1464C202.108 43.2213 202.173 43.3117 202.216 43.4118C202.26 43.5119 202.281 43.6196 202.278 43.7279V45.9045C202.281 46.0128 202.26 46.1205 202.216 46.2206C202.173 46.3207 202.108 46.4111 202.026 46.486H202.017C201.937 46.5645 201.841 46.6265 201.734 46.6679C201.628 46.7094 201.514 46.7294 201.399 46.7269H199.945C199.829 46.7282 199.714 46.7075 199.606 46.6662C199.499 46.6248 199.401 46.5636 199.318 46.486C199.238 46.4099 199.174 46.3193 199.131 46.2195C199.087 46.1196 199.065 46.0125 199.066 45.9045V43.7279C199.065 43.6198 199.087 43.5126 199.13 43.4127C199.173 43.3128 199.237 43.2222 199.318 43.1464C199.399 43.0661 199.497 43.0026 199.605 42.9597C199.712 42.9169 199.828 42.8956 199.945 42.8972H201.399C201.515 42.8942 201.63 42.9148 201.736 42.9578C201.843 43.0008 201.939 43.0651 202.017 43.1464H202.026ZM202.722 47.1257C202.883 46.9661 203.013 46.7804 203.105 46.5774C203.202 46.3649 203.252 46.136 203.253 45.9045V43.7279C203.253 43.499 203.203 43.2726 203.105 43.0633C202.909 42.6496 202.559 42.3207 202.122 42.1412C201.893 42.0476 201.647 41.9995 201.399 42H199.928C199.682 42.0004 199.439 42.0485 199.214 42.1412H199.205C198.991 42.2305 198.796 42.3573 198.631 42.5151C198.463 42.6714 198.33 42.8577 198.239 43.0633C198.144 43.2732 198.097 43.4996 198.099 43.7279V45.9045C198.095 46.1392 198.146 46.3718 198.247 46.5857C198.341 46.7877 198.474 46.971 198.639 47.1257C198.808 47.2837 199.006 47.4104 199.223 47.4995C199.451 47.5925 199.697 47.6405 199.945 47.6407H201.425C201.668 47.6413 201.908 47.5932 202.13 47.4995C202.35 47.4105 202.551 47.2838 202.722 47.1257Z" fill="#5D5D5D"/>
<path d="M210.601 43.1547C210.683 43.2277 210.748 43.3166 210.792 43.4154C210.835 43.5143 210.856 43.6208 210.854 43.728V47.1755C210.854 47.2992 210.903 47.4182 210.993 47.5078C211.087 47.5924 211.212 47.6399 211.341 47.6407C211.468 47.6395 211.589 47.5919 211.681 47.5078C211.726 47.4645 211.762 47.4127 211.786 47.3555C211.81 47.2983 211.822 47.2371 211.82 47.1755V43.728C211.823 43.4996 211.775 43.2732 211.681 43.0634C211.589 42.8578 211.456 42.6714 211.289 42.5151C211.12 42.3571 210.923 42.2303 210.706 42.1412C210.483 42.0491 210.243 42.0011 210 42H209.374C209.099 41.9986 208.828 42.0584 208.581 42.1745C208.376 42.2731 208.19 42.4052 208.033 42.5649C207.869 42.4048 207.678 42.2727 207.467 42.1745C207.224 42.0566 206.956 41.9968 206.683 42H206.065C205.82 42.0004 205.577 42.0485 205.351 42.1412H205.343C205.128 42.2305 204.934 42.3573 204.768 42.5151C204.601 42.6714 204.468 42.8578 204.376 43.0634C204.282 43.2732 204.234 43.4996 204.237 43.728V47.1755C204.235 47.2371 204.247 47.2983 204.27 47.3555C204.294 47.4127 204.331 47.4645 204.376 47.5078C204.468 47.5919 204.589 47.6395 204.716 47.6407C204.846 47.6407 204.97 47.5931 205.064 47.5078C205.11 47.4645 205.146 47.4127 205.17 47.3555C205.194 47.2983 205.205 47.2371 205.203 47.1755V43.728C205.202 43.621 205.224 43.5149 205.267 43.4163C205.311 43.3177 205.375 43.2287 205.456 43.1547C205.534 43.0746 205.628 43.0105 205.733 42.9662C205.838 42.9219 205.951 42.8984 206.065 42.8972H206.683C206.798 42.8998 206.91 42.9239 207.015 42.9681C207.12 43.0123 207.214 43.0757 207.293 43.1547C207.376 43.2273 207.443 43.3159 207.488 43.4147C207.533 43.5135 207.555 43.6202 207.554 43.728V47.1755C207.55 47.2346 207.559 47.2939 207.58 47.3496C207.601 47.4053 207.633 47.4564 207.676 47.4995H207.685C207.778 47.5848 207.903 47.6324 208.033 47.6324C208.096 47.6336 208.159 47.6224 208.217 47.5996C208.275 47.5767 208.328 47.5426 208.372 47.4995C208.462 47.4099 208.512 47.2909 208.512 47.1672V43.728C208.509 43.6216 208.53 43.5159 208.572 43.4173C208.613 43.3188 208.676 43.2294 208.755 43.1547C208.921 42.9934 209.146 42.9009 209.382 42.8972H209.992C210.106 42.8984 210.219 42.9219 210.324 42.9662C210.429 43.0105 210.523 43.0746 210.601 43.1547Z" fill="#5D5D5D"/>
<path fill-rule="evenodd" clip-rule="evenodd" d="M216.617 43.1547C216.701 43.2282 216.768 43.3182 216.813 43.4185C216.858 43.5188 216.88 43.6271 216.878 43.7362V45.9045C216.88 46.0147 216.857 46.124 216.812 46.2255C216.767 46.327 216.701 46.4185 216.617 46.4943C216.536 46.5717 216.44 46.6324 216.333 46.6724C216.227 46.7125 216.113 46.731 215.999 46.7269H214.649C214.534 46.7297 214.419 46.7106 214.311 46.6707C214.204 46.6307 214.106 46.5708 214.022 46.4943C213.941 46.4169 213.877 46.3249 213.834 46.2237C213.791 46.1224 213.769 46.0139 213.77 45.9045V43.7362C213.768 43.628 213.789 43.5205 213.833 43.4204C213.876 43.3204 213.941 43.2299 214.022 43.1547C214.104 43.0756 214.202 43.0133 214.31 42.9718C214.417 42.9304 214.533 42.9106 214.649 42.9138H215.999C216.114 42.9092 216.229 42.9283 216.335 42.9699C216.442 43.0115 216.538 43.0745 216.617 43.1547ZM213.927 42.1412C213.712 42.2305 213.517 42.3573 213.352 42.5151C213.18 42.6688 213.043 42.8556 212.952 43.0633C212.853 43.2753 212.803 43.5045 212.804 43.7362V49.5514C212.806 49.6711 212.857 49.7852 212.947 49.8691C213.036 49.953 213.157 50 213.282 50C213.412 50 213.537 49.9524 213.631 49.8671C213.675 49.8263 213.711 49.7773 213.735 49.723C213.758 49.6687 213.771 49.6103 213.77 49.5514V47.4247C213.879 47.4802 213.993 47.5274 214.11 47.5659C214.279 47.6163 214.455 47.6415 214.632 47.6407H215.999C216.244 47.6422 216.488 47.5941 216.713 47.4995C216.933 47.4126 217.134 47.2856 217.305 47.1256C217.47 46.969 217.605 46.7863 217.705 46.5857C217.802 46.3705 217.853 46.1388 217.853 45.9045V43.7362C217.853 43.5073 217.802 43.2809 217.705 43.0717C217.612 42.8671 217.479 42.6812 217.313 42.5234C217.149 42.3585 216.95 42.2283 216.73 42.1412C216.507 42.0491 216.267 42.0011 216.025 42H214.649C214.401 42.0002 214.155 42.0482 213.927 42.1412Z" fill="#5D5D5D"/>
<path fill-rule="evenodd" clip-rule="evenodd" d="M220.569 45.0737H222.685V46.7269H220.569C220.452 46.7288 220.335 46.7085 220.226 46.6672C220.117 46.6258 220.018 46.5642 219.934 46.486C219.855 46.4095 219.792 46.3186 219.75 46.2188C219.708 46.1189 219.688 46.012 219.69 45.9045C219.686 45.7967 219.705 45.6893 219.747 45.5891C219.789 45.4889 219.853 45.3983 219.934 45.323C220.016 45.2421 220.115 45.1782 220.224 45.1353C220.334 45.0924 220.451 45.0715 220.569 45.0737ZM219.838 47.4995C220.069 47.5931 220.318 47.6412 220.569 47.6407H223.172C223.299 47.6394 223.421 47.5919 223.512 47.5078C223.558 47.4645 223.594 47.4127 223.618 47.3555C223.642 47.2983 223.653 47.2371 223.651 47.1755V43.7279C223.655 43.4986 223.604 43.2714 223.503 43.0634C223.412 42.8577 223.279 42.6714 223.111 42.5151C222.941 42.3551 222.74 42.2281 222.519 42.1412C222.294 42.0476 222.051 41.9995 221.806 42H219.533C219.469 41.9982 219.405 42.009 219.345 42.0319C219.285 42.0548 219.23 42.0892 219.185 42.1329C219.139 42.1727 219.103 42.2216 219.079 42.2761C219.055 42.3306 219.044 42.3895 219.046 42.4486C219.044 42.5077 219.055 42.5666 219.079 42.6211C219.103 42.6756 219.139 42.7245 219.185 42.7643C219.23 42.8081 219.285 42.8425 219.345 42.8653C219.405 42.8882 219.469 42.899 219.533 42.8972H221.806C221.921 42.8947 222.036 42.9156 222.143 42.9586C222.249 43.0015 222.345 43.0656 222.424 43.1464C222.507 43.2209 222.573 43.311 222.618 43.4111C222.663 43.5112 222.686 43.6191 222.685 43.7279V44.1682H220.569C220.319 44.1649 220.07 44.2101 219.838 44.3012C219.624 44.3904 219.429 44.5172 219.263 44.675C219.093 44.8339 218.957 45.0229 218.863 45.2316C218.765 45.4435 218.714 45.6728 218.715 45.9045C218.715 46.1388 218.766 46.3705 218.863 46.5857C219.062 46.9921 219.409 47.3165 219.838 47.4995Z" fill="#5D5D5D"/>
<path d="M228.352 43.1547C228.433 43.2287 228.497 43.3177 228.541 43.4163C228.584 43.5149 228.606 43.621 228.605 43.7279V47.1755C228.603 47.237 228.614 47.2983 228.638 47.3555C228.662 47.4126 228.698 47.4645 228.744 47.5078C228.838 47.5931 228.963 47.6407 229.092 47.6407C229.219 47.6394 229.341 47.5919 229.432 47.5078C229.521 47.4182 229.571 47.2992 229.571 47.1755V43.7279C229.571 43.499 229.52 43.2726 229.423 43.0633C229.338 42.8566 229.207 42.6696 229.04 42.5151C228.87 42.3551 228.669 42.2281 228.448 42.1412C228.226 42.0475 227.986 41.9994 227.743 42H226.463C226.218 42.0004 225.975 42.0485 225.749 42.1412C225.531 42.2283 225.333 42.3553 225.166 42.5151C224.999 42.6714 224.866 42.8577 224.774 43.0633C224.68 43.2732 224.632 43.4996 224.635 43.7279V47.1755C224.633 47.237 224.644 47.2983 224.668 47.3555C224.692 47.4126 224.728 47.4645 224.774 47.5078C224.865 47.5919 224.987 47.6394 225.114 47.6407C225.243 47.6407 225.368 47.5931 225.462 47.5078C225.508 47.4645 225.544 47.4126 225.568 47.3555C225.592 47.2983 225.603 47.237 225.601 47.1755V43.7279C225.6 43.621 225.622 43.5149 225.665 43.4163C225.709 43.3177 225.773 43.2287 225.854 43.1547C225.932 43.0746 226.026 43.0104 226.131 42.9662C226.235 42.9219 226.349 42.8984 226.463 42.8972H227.743C227.857 42.8984 227.971 42.9219 228.075 42.9662C228.18 43.0104 228.274 43.0746 228.352 43.1547Z" fill="#5D5D5D"/>
<path d="M234.472 48.8453C234.392 48.9234 234.296 48.9851 234.189 49.0265C234.083 49.0679 233.969 49.0882 233.854 49.0862H231.217C231.09 49.0875 230.968 49.135 230.877 49.2191C230.831 49.2624 230.795 49.3143 230.771 49.3714C230.747 49.4286 230.736 49.4899 230.738 49.5514C230.737 49.6103 230.749 49.6687 230.773 49.723C230.797 49.7773 230.832 49.8263 230.877 49.8671C230.968 49.9512 231.09 49.9987 231.217 50H233.854C234.1 50.0006 234.343 49.9525 234.568 49.8588C234.789 49.7719 234.99 49.6449 235.16 49.485C235.326 49.3272 235.458 49.1412 235.552 48.9367C235.654 48.726 235.705 48.4959 235.7 48.2638V42.4486C235.701 42.3897 235.689 42.3313 235.665 42.277C235.641 42.2227 235.605 42.1737 235.561 42.1329C235.517 42.0898 235.464 42.0557 235.405 42.0329C235.347 42.01 235.284 41.9988 235.221 42C235.157 41.9987 235.093 42.0097 235.033 42.0326C234.973 42.0554 234.919 42.0896 234.873 42.1329C234.787 42.2179 234.737 42.3305 234.734 42.4486V45.9045C234.735 46.0147 234.713 46.124 234.668 46.2255C234.623 46.327 234.556 46.4185 234.472 46.4943C234.392 46.5717 234.295 46.6324 234.189 46.6724C234.083 46.7125 233.969 46.731 233.854 46.7269H232.4C232.284 46.7304 232.167 46.7116 232.058 46.6717C231.949 46.6317 231.849 46.5714 231.765 46.4943C231.685 46.4165 231.622 46.3243 231.58 46.223C231.539 46.1217 231.518 46.0134 231.521 45.9045V42.4486C231.52 42.3892 231.506 42.3306 231.481 42.2763C231.456 42.2221 231.419 42.1733 231.373 42.1329C231.328 42.0883 231.274 42.0534 231.214 42.0304C231.154 42.0075 231.09 41.9971 231.025 42C230.963 41.9979 230.901 42.0087 230.844 42.0317C230.787 42.0546 230.736 42.0892 230.694 42.1329C230.648 42.1733 230.612 42.2221 230.586 42.2763C230.561 42.3306 230.547 42.3892 230.546 42.4486V45.9045C230.547 46.1388 230.597 46.3705 230.694 46.5857C230.794 46.7864 230.93 46.969 231.095 47.1257C231.26 47.2834 231.455 47.4102 231.669 47.4995C231.901 47.5931 232.149 47.6412 232.4 47.6407H233.872C234.046 47.6422 234.22 47.617 234.385 47.566C234.505 47.5275 234.622 47.4803 234.734 47.4247V48.2638C234.736 48.3729 234.714 48.4812 234.669 48.5815C234.624 48.6818 234.557 48.7718 234.472 48.8453Z" fill="#5D5D5D"/>
</g>
</g>
<defs>
<clipPath id="clip0">
<rect width="235.7" height="52" fill="white" transform="translate(0 0.480667)"/>
</clipPath>
<clipPath id="clip1">
<rect width="104" height="8" fill="white" transform="translate(131.7 42)"/>
</clipPath>
</defs>
</svg>